<svg width="250" height="290" xmlns="http://www.w3.org/2000/svg">
 <g>
  <title>Layer 1</title>
  <g id="svg_2">
   <path d="m35,225.5l10,0q10.355339,0 17.67767,7.322327q7.32233,7.322327 7.32233,17.677673q0,10.355347 -7.32233,17.677673q-7.32233,7.322327 -17.67767,7.322327l-10,0q-10.355339,0 -17.67767,-7.322327q-7.32233,-7.322327 -7.32233,-17.677673q0,-10.355347 7.32233,-17.677673q7.32233,-7.322327 17.67767,-7.322327z" stroke="#333333" stroke-width="2" fill="#ffe599" id="svg_3"/>
   <g id="svg_4">
    <text x="40" y="253.5" text-anchor=" middle" id="svg_5">
     <tspan xml:space="preserve" font-size="12" font-family="Arial" fill="#000000" id="svg_6">A</tspan>
    </text>
   </g>
  </g>
  <g id="svg_7">
   <path d="m35,149l10,0q10.355339,0 17.67767,7.322327q7.32233,7.322327 7.32233,17.677673q0,10.355347 -7.32233,17.677673q-7.32233,7.322327 -17.67767,7.322327l-10,0q-10.355339,0 -17.67767,-7.322327q-7.32233,-7.322327 -7.32233,-17.677673q0,-10.355347 7.32233,-17.677673q7.32233,-7.322327 17.67767,-7.322327z" stroke="#333333" stroke-width="2" fill="#ffe599" id="svg_8"/>
   <g id="svg_9">
    <text x="40" y="177" text-anchor=" middle" id="svg_10">
     <tspan xml:space="preserve" font-size="12" font-family="Arial" fill="#000000" id="svg_11">B</tspan>
    </text>
   </g>
  </g>
  <g id="svg_12">
   <path d="m110.5,149l10,0q10.355347,0 17.677673,7.322327q7.322327,7.322327 7.322327,17.677673q0,10.355347 -7.322327,17.677673q-7.322327,7.322327 -17.677673,7.322327l-10,0q-10.355339,0 -17.677673,-7.322327q-7.322327,-7.322327 -7.322327,-17.677673q0,-10.355347 7.322327,-17.677673q7.322334,-7.322327 17.677673,-7.322327z" stroke="#333333" stroke-width="2" fill="#93c47d" id="svg_13"/>
   <g id="svg_14">
    <text x="115.5" y="177" text-anchor=" middle" id="svg_15">
     <tspan xml:space="preserve" font-size="12" font-family="Arial" fill="#000000" id="svg_16">C</tspan>
    </text>
   </g>
  </g>
  <g id="svg_17">
   <path d="m110.5,80l10,0q10.355347,0 17.677673,7.322327q7.322327,7.322334 7.322327,17.677673q0,10.355339 -7.322327,17.677673q-7.322327,7.322327 -17.677673,7.322327l-10,0q-10.355339,0 -17.677673,-7.322327q-7.322327,-7.322334 -7.322327,-17.677673q0,-10.355339 7.322327,-17.677673q7.322334,-7.322327 17.677673,-7.322327z" stroke="#333333" stroke-width="2" fill="#93c47d" id="svg_18"/>
   <g id="svg_19">
    <text x="115.5" y="108" text-anchor=" middle" id="svg_20">
     <tspan xml:space="preserve" font-size="12" font-family="Arial" fill="#000000" id="svg_21">E</tspan>
    </text>
   </g>
  </g>
  <g id="svg_22">
   <path d="m186,80l10,0q10.355347,0 17.677673,7.322327q7.322327,7.322334 7.322327,17.677673q0,10.355339 -7.322327,17.677673q-7.322327,7.322327 -17.677673,7.322327l-10,0q-10.355347,0 -17.677673,-7.322327q-7.322327,-7.322334 -7.322327,-17.677673q0,-10.355339 7.322327,-17.677673q7.322327,-7.322327 17.677673,-7.322327z" stroke="#333333" stroke-width="2" fill="#6fa8dc" id="svg_23"/>
   <g id="svg_24">
    <text x="191" y="108" text-anchor=" middle" id="svg_25">
     <tspan xml:space="preserve" font-size="12" font-family="Arial" fill="#000000" id="svg_26">F</tspan>
    </text>
   </g>
  </g>
  <g id="svg_27">
   <path d="m35,80l10,0q10.355339,0 17.67767,7.322327q7.32233,7.322334 7.32233,17.677673q0,10.355339 -7.32233,17.677673q-7.32233,7.322327 -17.67767,7.322327l-10,0q-10.355339,0 -17.67767,-7.322327q-7.32233,-7.322334 -7.32233,-17.677673q0,-10.355339 7.32233,-17.677673q7.32233,-7.322327 17.67767,-7.322327z" stroke="#333333" stroke-width="2" fill="#ffe599" id="svg_28"/>
   <g id="svg_29">
    <text x="40" y="108" text-anchor=" middle" id="svg_30">
     <tspan xml:space="preserve" font-size="12" font-family="Arial" fill="#000000" id="svg_31">D</tspan>
    </text>
   </g>
  </g>
  <g id="svg_32">
   <line x1="40" y1="225.5" x2="115.5" y2="199" stroke-dasharray="23, 0" stroke="#000000" stroke-width="2" id="svg_33"/>
   <g id="svg_34"/>
  </g>
  <g id="svg_35">
   <path d="m40,225.5l0,-26.5" stroke-dasharray="23, 0" fill="none" stroke="#000000" stroke-width="2" id="svg_36"/>
   <g id="svg_37"/>
  </g>
  <g id="svg_38">
   <path d="m40,149l0,-19" stroke-dasharray="23, 0" fill="none" stroke="#000000" stroke-width="2" id="svg_39"/>
   <g id="svg_40"/>
  </g>
  <g id="svg_41">
   <path d="m115.5,149l0,-19" stroke-dasharray="23, 0" fill="none" stroke="#000000" stroke-width="2" id="svg_42"/>
   <g id="svg_43"/>
  </g>
  <g id="svg_44">
   <line x1="115.5" y1="149" x2="191" y2="130" stroke-dasharray="23, 0" stroke="#000000" stroke-width="2" id="svg_45"/>
   <g id="svg_46"/>
  </g>
  <g id="svg_47">
   <polygon points="75.5 250.5 96 230 96 242.3 165.5 242.3 165.5 258.7 96 258.7 96 271" stroke="#333333" stroke-width="2" fill="#ffffff" id="svg_48"/>
   <g id="svg_49">
    <text x="120.5" y="253.5" text-anchor=" middle" id="svg_50">
     <tspan xml:space="preserve" font-size="12" font-family="Arial" fill="#000000" id="svg_51">HEAD, master</tspan>
    </text>
   </g>
  </g>
  <g id="svg_52">
   <polygon points="151 178.5 171.5 158 171.5 170.3 241 170.3 241 186.7 171.5 186.7 171.5 199" stroke="#333333" stroke-width="2" fill="#ffffff" id="svg_53"/>
   <g id="svg_54">
    <text x="196" y="181.5" text-anchor=" middle" id="svg_55">
     <tspan xml:space="preserve" font-size="12" font-family="Arial" fill="#000000" id="svg_56">fizzbuzz</tspan>
    </text>
   </g>
  </g>
  <g id="svg_57">
   <path d="m35,9l10,0q10.355339,0 17.67767,7.32233q7.32233,7.32233 7.32233,17.67767q0,10.355339 -7.32233,17.67767q-7.32233,7.32233 -17.67767,7.32233l-10,0q-10.355339,0 -17.67767,-7.32233q-7.32233,-7.32233 -7.32233,-17.67767q0,-10.355339 7.32233,-17.67767q7.32233,-7.32233 17.67767,-7.32233z" stroke="#333333" stroke-width="2" fill="#ffe599" id="svg_58"/>
   <g id="svg_59">
    <text x="40" y="37" text-anchor=" middle" id="svg_60">
     <tspan xml:space="preserve" font-size="12" font-family="Arial" fill="#000000" id="svg_61">G</tspan>
    </text>
   </g>
  </g>
  <g id="svg_62">
   <path d="m40,59l0,21" stroke-dasharray="23, 0" fill="none" stroke="#000000" stroke-width="2" id="svg_63"/>
   <g id="svg_64"/>
  </g>
  <g id="svg_65">
   <line x1="115.5" y1="80" x2="40" y2="59" stroke-dasharray="23, 0" stroke="#000000" stroke-width="2" id="svg_66"/>
   <g id="svg_67"/>
  </g>
  <g id="svg_68">
   <path d="m186,9l10,0q10.355347,0 17.677673,7.32233q7.322327,7.32233 7.322327,17.67767q0,10.355339 -7.322327,17.67767q-7.322327,7.32233 -17.677673,7.32233l-10,0q-10.355347,0 -17.677673,-7.32233q-7.322327,-7.32233 -7.322327,-17.67767q0,-10.355339 7.322327,-17.67767q7.322327,-7.32233 17.677673,-7.32233z" stroke="#333333" stroke-width="2" fill="#6fa8dc" id="svg_69"/>
   <g id="svg_70">
    <text x="191" y="37" text-anchor=" middle" id="svg_71">
     <tspan xml:space="preserve" font-size="12" font-family="Arial" fill="#000000" id="svg_72">H</tspan>
    </text>
   </g>
  </g>
  <g id="svg_73">
   <path d="m191,80l0,-21" stroke-dasharray="23, 0" fill="none" stroke="#000000" stroke-width="2" id="svg_74"/>
   <g id="svg_75"/>
  </g>
 </g>
</svg>
